<?xml version="1.0" encoding="UTF-8" standalone="no"?>


<svg
   xmlns:dc="http://purl.org/dc/elements/1.1/"
   xmlns:cc="http://creativecommons.org/ns#"
   xmlns:rdf="http://www.w3.org/1999/02/22-rdf-syntax-ns#"
   xmlns:svg="http://www.w3.org/2000/svg"
   xmlns="http://www.w3.org/2000/svg"
   xmlns:sodipodi="http://sodipodi.sourceforge.net/DTD/sodipodi-0.dtd"
   xmlns:inkscape="http://www.inkscape.org/namespaces/inkscape"
   version="1.1"
   width="841"
   height="162"
   id="svg5816"
   inkscape:version="0.48.3.1 r9886"
   sodipodi:docname="DT Swiss logo.svg">
  <sodipodi:namedview
     pagecolor="#ffffff"
     bordercolor="#666666"
     borderopacity="1"
     objecttolerance="10"
     gridtolerance="10"
     guidetolerance="10"
     inkscape:pageopacity="0"
     inkscape:pageshadow="2"
     inkscape:window-width="1289"
     inkscape:window-height="480"
     id="namedview3005"
     showgrid="false"
     inkscape:zoom="0.41617122"
     inkscape:cx="420.5"
     inkscape:cy="81"
     inkscape:window-x="0"
     inkscape:window-y="0"
     inkscape:window-maximized="0"
     inkscape:current-layer="svg5816" />
  <defs
     id="defs5818">
    <clipPath
       id="clipPath3147">
      <path
         d="m 37.583,935.386 206.567,0 0,32.598 -206.567,0 0,-32.598 z"
         id="path3149" />
    </clipPath>
  </defs>
  <metadata
     id="metadata5821">
    <rdf:RDF>
      <cc:Work
         rdf:about="">
        <dc:format>image/svg+xml</dc:format>
        <dc:type
           rdf:resource="http://purl.org/dc/dcmitype/StillImage" />
        <dc:title />
      </cc:Work>
    </rdf:RDF>
  </metadata>
  <path
     inkscape:connector-curvature="0"
     style="fill:#c51522;fill-opacity:1;fill-rule:nonzero;stroke:none"
     id="path3139"
     d="M 0,162 840,162 840,2 0,2 0,162 z" />
  <g
     style="fill:#ffffff;fill-opacity:1"
     id="g3145"
     clip-path="url(#clipPath3147)"
     transform="matrix(3.75,0,0,-3.75,-108.18112,3651.0846)">
    <g
       style="fill:#ffffff;fill-opacity:1"
       id="g3151"
       transform="translate(61.4573,951.9349)">
      <path
         inkscape:connector-curvature="0"
         style="fill:#ffffff;fill-opacity:1;fill-rule:nonzero;stroke:none"
         id="path3153"
         d="m 0,0 c -1.116,-5.251 -2.723,-8.148 -7.096,-8.148 l -3.018,0 3.48,16.385 2.977,0 C 0.67,8.237 1.156,5.431 0,0 M 13.827,15.515 12.58,9.647 c -1.608,4.546 -6.102,5.87 -12.031,5.87 l -17.724,0 -6.7,-31.516 17.227,0 c 9.011,0 16.654,3.743 19.192,15.682 0.542,2.551 0.743,4.709 0.655,6.538 l 9.301,0 -4.724,-22.229 12.089,0 4.726,22.229 10.646,0 1.977,9.294 -33.387,0 z" />
    </g>
    <g
       style="fill:#ffffff;fill-opacity:1"
       id="g3155"
       transform="translate(140.7036,962.4758)">
      <path
         inkscape:connector-curvature="0"
         style="fill:#ffffff;fill-opacity:1;fill-rule:nonzero;stroke:none"
         id="path3157"
         d="m 0,0 c -1.49,0.903 -3.341,1.535 -5.734,1.535 -2.98,0 -6.231,-1.174 -6.231,-4.921 0,-5.283 10.746,-5.328 10.746,-13.59 0,-4.741 -3.296,-10.114 -10.881,-10.114 -3.658,0 -6.276,0.813 -8.805,1.806 l 1.445,4.154 c 1.851,-1.174 4.425,-1.987 6.637,-1.987 4.786,0 6.818,2.98 6.818,5.599 0,6.411 -10.746,5.282 -10.746,14.041 0,5.735 5.238,8.985 10.43,8.985 2.618,0 5.192,-0.496 7.585,-1.49 L 0,0 z" />
    </g>
    <g
       style="fill:#ffffff;fill-opacity:1"
       id="g3159"
       transform="translate(146.26,967.4424)">
      <path
         inkscape:connector-curvature="0"
         style="fill:#ffffff;fill-opacity:1;fill-rule:nonzero;stroke:none"
         id="path3161"
         d="m 0,0 4.514,0 1.716,-26.955 0.091,0 L 18.872,0 l 5.96,0 0.813,-27 0.09,0 13.636,27 4.831,0 -16.481,-31.515 -5.869,0 -0.677,27.271 -0.09,0 -12.552,-27.271 -5.96,0 L 0,0 z" />
    </g>
    <g
       style="fill:#ffffff;fill-opacity:1"
       id="g3163"
       transform="translate(194.7526,967.4424)">
      <path
         inkscape:connector-curvature="0"
         style="fill:#ffffff;fill-opacity:1;fill-rule:nonzero;stroke:none"
         id="path3165"
         d="m 0,0 4.56,0 -6.772,-31.515 -4.561,0 L 0,0 z" />
    </g>
    <g
       style="fill:#ffffff;fill-opacity:1"
       id="g3167"
       transform="translate(220.3992,962.4758)">
      <path
         inkscape:connector-curvature="0"
         style="fill:#ffffff;fill-opacity:1;fill-rule:nonzero;stroke:none"
         id="path3169"
         d="m 0,0 c -1.49,0.903 -3.341,1.535 -5.734,1.535 -2.98,0 -6.231,-1.174 -6.231,-4.921 0,-5.283 10.746,-5.328 10.746,-13.59 0,-4.741 -3.296,-10.114 -10.881,-10.114 -3.658,0 -6.276,0.813 -8.804,1.806 l 1.445,4.154 c 1.851,-1.174 4.424,-1.987 6.636,-1.987 4.787,0 6.818,2.98 6.818,5.599 0,6.411 -10.745,5.282 -10.745,14.041 0,5.735 5.237,8.985 10.429,8.985 2.619,0 5.192,-0.496 7.585,-1.49 L 0,0 z" />
    </g>
    <g
       style="fill:#ffffff;fill-opacity:1"
       id="g3171"
       transform="translate(242.8853,962.4758)">
      <path
         inkscape:connector-curvature="0"
         style="fill:#ffffff;fill-opacity:1;fill-rule:nonzero;stroke:none"
         id="path3173"
         d="m 0,0 c -1.49,0.903 -3.341,1.535 -5.734,1.535 -2.98,0 -6.231,-1.174 -6.231,-4.921 0,-5.283 10.746,-5.328 10.746,-13.59 0,-4.741 -3.296,-10.114 -10.881,-10.114 -3.658,0 -6.276,0.813 -8.804,1.806 l 1.445,4.154 c 1.851,-1.174 4.424,-1.987 6.636,-1.987 4.787,0 6.818,2.98 6.818,5.599 0,6.411 -10.745,5.282 -10.745,14.041 0,5.735 5.237,8.985 10.429,8.985 2.619,0 5.192,-0.496 7.585,-1.49 L 0,0 z" />
    </g>
  </g>
</svg>
